<svg t="1674358253409" class="icon" viewBox="0 0 1024 1024" version="1.1" xmlns="http://www.w3.org/2000/svg" p-id="1198" width="48" height="48"><path d="M512 629.504c-12.352 0-24.768-3.072-35.84-9.344L132.8 424.96a59.712 59.712 0 0 1-30.336-52.48 59.52 59.52 0 0 1 30.336-52.416l343.488-195.2a72.64 72.64 0 0 1 71.552 0L891.264 320c18.944 10.816 30.336 30.336 30.336 52.416s-11.392 41.6-30.336 52.48L547.776 620.16A72.32 72.32 0 0 1 512 629.568z m0 152.576c-12.352 0-24.768-3.072-35.84-9.408l-0.256-0.128-356.672-208.64a20.224 20.224 0 0 1-7.296-27.392 19.84 19.84 0 0 1 27.2-7.36l356.672 208.64a33.152 33.152 0 0 0 32.384 0l356.48-208.512a19.712 19.712 0 0 1 27.264 7.36 20.096 20.096 0 0 1-7.296 27.52l-356.864 208.512A72.32 72.32 0 0 1 512 782.08z m0 152.512c-12.352 0-24.768-3.072-35.84-9.408l-0.256-0.128-356.672-208.64a20.224 20.224 0 0 1-7.296-27.392 19.84 19.84 0 0 1 27.2-7.296l356.672 208.576a33.152 33.152 0 0 0 32.384 0l356.48-208.512a19.712 19.712 0 0 1 27.264 7.424 20.096 20.096 0 0 1-7.296 27.392l-356.864 208.64a72.32 72.32 0 0 1-35.776 9.344z" fill="#A1ACB3" p-id="1199"></path></svg>